<?xml version="1.0" standalone="no"?>
<!DOCTYPE svg PUBLIC "-//W3C//DTD SVG 20010904//EN"
 "http://www.w3.org/TR/2001/REC-SVG-20010904/DTD/svg10.dtd">
<svg version="1.0" xmlns="http://www.w3.org/2000/svg"
 width="100.000000pt" height="70.000000pt" viewBox="0 0 244.000000 244.000000"
 preserveAspectRatio="xMidYMid meet">

<g transform="translate(0.000000,244.000000) scale(0.100000,-0.100000)"
fill="#000000" stroke="none">
<path d="M1073 1995 c-175 -88 -226 -318 -98 -441 118 -114 307 -62 397 109
18 33 23 59 23 122 0 97 -26 152 -93 199 -35 25 -55 31 -110 34 -57 3 -75 -1
-119 -23z m186 -63 c66 -49 89 -141 57 -226 -72 -188 -314 -195 -342 -10 -24
165 167 324 285 236z"/>
<path d="M1615 2008 c-79 -28 -151 -102 -181 -185 -29 -84 -9 -208 44 -266 24
-27 83 -55 130 -63 118 -19 270 97 297 226 26 125 -21 235 -120 281 -44 20
-123 24 -170 7z m141 -67 c135 -61 109 -294 -41 -362 -119 -54 -225 14 -225
145 0 75 27 133 83 181 65 56 117 66 183 36z"/>
<path d="M542 1753 l3 -248 40 -3 40 -3 49 92 49 92 18 -24 c10 -13 38 -52 61
-86 41 -60 45 -63 86 -63 32 0 41 3 36 13 -5 6 -43 61 -85 120 l-76 109 67
124 68 124 -38 0 -38 0 -104 -187 -103 -188 -3 188 -2 187 -35 0 -35 0 2 -247z"/>
<path d="M547 1413 c-4 -3 -7 -116 -7 -250 l0 -243 35 0 35 0 0 215 0 215 105
0 105 0 0 -215 0 -215 35 0 35 0 0 250 0 250 -168 0 c-93 0 -172 -3 -175 -7z"/>
<path d="M960 1170 l0 -250 140 0 140 0 0 30 0 30 -110 0 -111 0 3 78 3 77
108 3 107 3 0 29 0 30 -110 0 -110 0 0 75 0 75 110 0 110 0 0 35 0 35 -140 0
-140 0 0 -250z"/>
<path d="M1310 1170 l0 -250 35 0 35 0 0 80 0 80 55 0 c108 0 185 68 185 163
0 115 -80 177 -230 177 l-80 0 0 -250z m203 160 c32 -26 51 -79 38 -111 -17
-46 -57 -72 -116 -77 l-55 -4 0 106 0 106 54 0 c38 0 60 -6 79 -20z"/>
<path d="M1772 1368 c-21 -55 -160 -413 -169 -436 -4 -10 4 -13 33 -10 l39 3
31 85 32 85 70 3 70 3 34 -88 c33 -87 34 -88 71 -91 l37 -3 -18 48 c-192 501
-192 502 -230 401z m58 -144 c11 -25 20 -50 20 -55 0 -5 -18 -9 -40 -9 -22 0
-40 3 -40 6 0 10 34 104 38 104 1 0 12 -21 22 -46z"/>
<path d="M545 818 c-3 -7 -3 -22 -1 -33 2 -17 12 -20 64 -23 l62 -3 0 -214 0
-215 35 0 35 0 0 215 0 215 60 0 60 0 0 35 0 35 -155 0 c-116 0 -157 -3 -160
-12z"/>
<path d="M900 581 l0 -251 38 0 c36 0 39 3 177 187 l140 186 3 -186 2 -187 35
0 35 0 -2 248 -3 247 -31 3 c-29 3 -38 -7 -175 -188 l-144 -192 -5 189 -5 188
-32 3 -33 3 0 -250z"/>
<path d="M1400 580 l0 -250 83 0 c94 0 126 14 173 76 25 32 29 47 29 100 0 69
-17 102 -72 140 l-30 20 19 24 c13 16 17 32 13 49 -15 58 -72 91 -160 91 l-55
0 0 -250z m138 168 c30 -30 1 -68 -52 -68 -24 0 -26 4 -26 40 0 39 1 40 33 40
18 0 38 -5 45 -12z m6 -142 c120 -50 87 -216 -44 -216 l-40 0 0 108 c0 60 3
112 7 115 10 11 41 8 77 -7z"/>
</g>
</svg>
